<svg xmlns="http://www.w3.org/2000/svg" viewBox="0 0 64 64"><rect width="64" height="64" fill="#070707"/><g transform="translate(5 5) scale(.84375) translate(2.00 7.32) scale(0.05263) translate(-194 -267)" fill-rule="evenodd"><path fill="#8a8a8a" d="M194 885a320 320 0 1 0 640 0a320 320 0 1 0 -640 0M351 885a163 163 0 1 0 326 0a163 163 0 1 0 -326 0"/><path fill="#ededed" d="M676 596a329 329 0 1 0 658 0a329 329 0 1 0 -658 0M839 596a166 166 0 1 0 332 0a166 166 0 1 0 -332 0"/><path fill="#8a8a8a" d="M1039 269A329 329 0 0 1 1290 760L1168 625A166 166 0 0 0 1083 449ZM948 920A329 329 0 0 1 761 816L898 723A166 166 0 0 0 999 762Z"/><path fill="#ededed" d="M680 596H840V1066.0A80.0 80.0 0 0 1 680 1066.0Z"/></g></svg>